<svg id="Layer_1" enable-background="new 0 0 508.498 508.498" height="512" viewBox="0 0 508.498 508.498" width="512" xmlns="http://www.w3.org/2000/svg"><g id="XMLID_562_"><path id="XMLID_2832_" d="m254.249 313.498c-18.853 0-59.019 0-70 0-10.169 0-20.311 1.61-30.107 4.893l37.107 57.607 63 42.5 10-52.5z" fill="#fff5f5"/><path id="XMLID_1447_" d="m354.356 318.391c-9.565-3.204-19.693-4.893-30.107-4.893-18.853 0-59.019 0-70 0v105l58.5-41.5z" fill="#e4e4ff"/><g id="XMLID_590_"><path id="XMLID_2795_" d="m404.249 228.256c-10.492 0-19.508 0-30 0 0-23 0-82.784 0-104.56l15-21.198 15 4.73z" fill="#283366"/></g><g id="XMLID_589_"><path id="XMLID_2778_" d="m329.41 148.256c-.106 0-150.214 0-150.322 0l-89.979-49.365 165.14-98.891 165.14 98.885z" fill="#4d4d8c"/></g><path id="XMLID_2773_" d="m277.415 88.498c-18.49 0-20.774 0-46.332 0-36.931 0-66.834 30.062-66.834 66.834v23.166l90 13 90-13c0-23.633.039-24.114-.087-26.587-1.78-35.114-30.888-63.413-66.747-63.413z" fill="#283366"/><path id="XMLID_1550_" d="m398.472 349.275-140.223 124.223 11 35h150v-100c0-22.379-7.782-42.971-20.777-59.223z" fill="#283366"/><path id="XMLID_1482_" d="m110.026 349.275c-12.995 16.252-20.777 36.844-20.777 59.223v99.758h150l9.5-37.879z" fill="#4d4d8c"/><path id="XMLID_2803_" d="m154.142 318.391c-17.534 5.874-32.801 16.732-44.115 30.885l129.223 129.223v30h15l8.5-45-8.5-45z" fill="#ffdc75"/><path id="XMLID_2804_" d="m398.472 349.275c-11.314-14.152-26.581-25.011-44.115-30.885l-100.108 100.108v90h15v-30z" fill="#ffc649"/><path id="XMLID_2796_" d="m164.249 223.498c0 49.626 40.374 90 90 90s90-40.374 90-90v-45h-180z" fill="#f1ccbd"/></g></svg>